<svg width="152" height="98" viewBox="0 0 152 98" fill="none" xmlns="http://www.w3.org/2000/svg">
<path fill-rule="evenodd" clip-rule="evenodd" d="M71.1454 82.3029C88.2987 91.5979 107.917 98.4253 127.369 97.0877C134.446 96.6017 140.997 94.561 147.723 92.5322C148.195 92.3906 148.464 91.8905 148.322 91.4163C148.179 90.9421 147.678 90.6732 147.204 90.8171C140.608 92.8058 134.186 94.8229 127.246 95.2995C108.071 96.6182 88.7423 89.8286 71.8485 80.6468L71.9688 80.3755C73.2828 77.4337 72.4689 73.14 70.3221 68.634C67.2458 62.1747 61.5178 55.2341 56.363 51.4005C54.0464 49.6783 51.8264 48.5837 49.9957 48.3548C48.5684 48.1755 47.344 48.4964 46.398 49.3504C44.3833 51.1717 44.4541 54.2786 46.0512 57.8811C49.3894 65.4162 59.194 75.3387 64.5115 78.5212C66.1723 79.5144 67.8615 80.4911 69.5766 81.4418C69.3596 81.9655 69.1449 82.4775 68.9137 82.9658C68.2507 84.3554 67.4368 85.5703 65.868 86.4031C63.4216 87.6983 60.4892 87.9224 57.4884 87.5874C52.8055 87.0613 47.9574 85.1575 44.388 83.5226C24.5099 74.4163 14.6652 58.6218 9.38541 42.766C4.0561 26.7522 3.35779 10.6628 1.77953 1.17195C1.69932 0.683606 1.23693 0.355686 0.748583 0.435897C0.26024 0.516108 -0.0700392 0.978499 0.0125308 1.46684C1.60023 11.019 2.31975 27.2122 7.6868 43.3322C13.1034 59.6103 23.2359 75.8035 43.6402 85.1528C47.3582 86.8561 52.4115 88.8212 57.2878 89.3686C60.6637 89.746 63.9548 89.4441 66.7079 87.9861C69.1779 86.6768 70.1593 84.6337 71.1454 82.3029ZM70.2725 79.7786L70.3339 79.6441C71.4828 77.0727 70.5816 73.3453 68.7037 69.4055C65.7477 63.1986 60.2485 56.5245 55.292 52.8396C53.5934 51.5751 51.9679 50.6668 50.5383 50.2846C49.3587 49.9709 48.3349 50.0157 47.6012 50.681C46.9052 51.3061 46.6292 52.1672 46.641 53.1698C46.6528 54.3471 47.0444 55.6989 47.6885 57.1544C50.8969 64.3947 60.3217 73.9256 65.4316 76.9831C67.0193 77.9314 68.6329 78.8657 70.2725 79.7786Z" fill="#FB9207"/>
<path fill-rule="evenodd" clip-rule="evenodd" d="M149.998 89.759C149.92 90.1436 149.658 90.6272 149.37 91.1439C148.686 92.3753 147.712 93.687 147.277 94.324C146.999 94.7345 147.108 95.2912 147.516 95.5696C147.926 95.848 148.483 95.7418 148.761 95.3313C149.292 94.5505 150.587 92.8 151.283 91.3491C151.656 90.5706 151.849 89.851 151.807 89.3344C151.736 88.4544 151.04 87.9047 149.66 87.9378C148.028 87.9779 144.996 88.7965 142.458 87.8127C141.998 87.6334 141.476 87.8646 141.299 88.3247C141.12 88.7871 141.349 89.3061 141.811 89.4854C144.232 90.422 147.053 89.9714 148.952 89.7826C149.313 89.7473 149.743 89.7519 149.998 89.759Z" fill="#FB9207"/>
</svg>
