<svg width="36" height="36" viewBox="0 0 36 36" fill="none" xmlns="http://www.w3.org/2000/svg">
<path d="M34.5 9V3C34.5 2.60218 34.342 2.22064 34.0607 1.93934C33.7794 1.65803 33.3978 1.5 33 1.5H3C2.60218 1.5 2.22064 1.65803 1.93934 1.93934C1.65803 2.22064 1.5 2.60218 1.5 3V9H34.5Z" fill="#FCD652"/>
<path d="M1.5 12V33C1.5 33.3978 1.65803 33.7794 1.93934 34.0607C2.22064 34.342 2.60218 34.5 3 34.5H10.5V12H1.5Z" fill="#FBA20A"/>
<path d="M13.5 34.5H33C33.3978 34.5 33.7794 34.342 34.0607 34.0607C34.342 33.7794 34.5 33.3978 34.5 33V12H13.5V34.5Z" fill="#1A73E8"/>
</svg>
