<svg width="36" height="36" viewBox="0 0 36 36" fill="none" xmlns="http://www.w3.org/2000/svg">
<path d="M20.1603 2.15984C22.2405 2.15984 24.3002 2.56955 26.222 3.36559C28.1438 4.16162 29.89 5.32839 31.3609 6.79927C32.8318 8.27015 33.9985 10.0163 34.7946 11.9381C35.5906 13.8599 36.0003 15.9197 36.0003 17.9998C36.0003 20.08 35.5906 22.1398 34.7946 24.0615C33.9985 25.9833 32.8318 27.7295 31.3609 29.2004C29.89 30.6713 28.1438 31.8381 26.222 32.6341C24.3002 33.4301 22.2405 33.8398 20.1603 33.8398L20.1603 17.9998L20.1603 2.15984Z" fill="#1A73E8"/>
<path d="M11.5193 5.76023C13.1267 5.76023 14.7183 6.07683 16.2033 6.69195C17.6884 7.30707 19.0377 8.20866 20.1743 9.34525C21.3109 10.4818 22.2125 11.8312 22.8276 13.3162C23.4427 14.8012 23.7593 16.3929 23.7593 18.0002C23.7593 19.6076 23.4427 21.1993 22.8276 22.6843C22.2125 24.1693 21.3109 25.5186 20.1743 26.6552C19.0377 27.7918 17.6884 28.6934 16.2033 29.3085C14.7183 29.9236 13.1267 30.2402 11.5193 30.2402L11.5193 18.0002L11.5193 5.76023Z" fill="#FCD652"/>
</svg>
