<svg width="57" height="35" viewBox="0 0 57 35" fill="none" xmlns="http://www.w3.org/2000/svg">
<path d="M52.9951 11.3149C53.6421 11.3033 54.2777 11.3611 54.8785 11.5806C55.6296 11.8579 56.138 12.3663 56.3113 13.1636C56.3922 13.5449 56.4153 13.9377 56.3344 14.3421C56.2535 14.7465 56.0456 15.0469 55.6874 15.2434C55.3292 15.4398 54.9247 15.5091 54.5203 15.5438C53.4457 15.6593 52.3942 15.8442 51.3658 16.1793C50.9614 16.3064 50.9614 16.3179 50.9614 16.757C50.9614 19.6918 50.9614 22.615 50.9614 25.5498C50.9614 25.8156 50.9498 26.0813 50.8921 26.3471C50.7881 26.7977 50.5339 27.1097 50.1063 27.2946C49.9215 27.3754 49.725 27.4448 49.517 27.4448C48.7429 27.4448 47.9571 27.4563 47.1945 27.283C46.1777 27.0635 45.7039 26.5089 45.5768 25.3765C45.5537 25.1454 45.5537 24.9028 45.5537 24.6717C45.5537 21.656 45.5537 18.6403 45.5537 15.6246C45.5537 15.3705 45.5537 15.1047 45.5884 14.8621C45.6924 14.215 46.0159 13.6835 46.5243 13.2791C47.1252 12.7938 47.8069 12.4819 48.5118 12.2046C49.9792 11.6153 51.4583 11.338 52.9951 11.3149Z" fill="white"/>
<path d="M22.8946 19.7607C22.8946 21.6556 22.8946 23.5505 22.8946 25.4455C22.8946 25.7112 22.8715 25.977 22.8368 26.2427C22.7559 26.7858 22.4671 27.167 21.924 27.3173C21.7738 27.3635 21.612 27.4097 21.4618 27.4097C20.6876 27.4328 19.9019 27.4559 19.1392 27.2941C18.9197 27.2479 18.7002 27.1786 18.5037 27.0977C18.0762 26.9013 17.7758 26.5893 17.6024 26.1503C17.4176 25.7112 17.3829 25.2375 17.3713 24.7753C17.3598 20.9046 17.3713 17.0339 17.3713 13.1747C17.3713 12.8628 17.3945 12.5623 17.4869 12.2619C17.5909 11.9153 17.7989 11.6611 18.134 11.5109C18.3651 11.4069 18.5962 11.3376 18.8388 11.326C19.5783 11.3145 20.3063 11.3145 21.0342 11.4416C21.1382 11.4647 21.2422 11.4878 21.3462 11.5109C22.2822 11.7651 22.7559 12.3428 22.8599 13.3018C22.8946 13.6253 22.9061 13.9604 22.9061 14.2955C22.8946 16.1095 22.8946 17.9351 22.8946 19.7607Z" fill="white"/>
<path d="M29.8045 19.0441C29.8045 20.9159 29.8161 22.7993 29.8045 24.6711C29.7929 25.6417 29.585 26.5776 29.1112 27.4326C28.5797 28.3916 27.8055 29.0502 26.6962 29.2582C26.1185 29.3622 25.5292 29.3737 24.963 29.1657C24.1657 28.8653 23.6457 28.3107 23.4493 27.4788C23.3453 27.0282 23.4609 26.7278 23.8537 26.5082C24.7666 25.9883 25.1248 25.1679 25.1941 24.1858C25.2056 23.9894 25.2056 23.8045 25.2056 23.6081C25.2056 20.0262 25.2056 16.4444 25.2056 12.8741C25.2056 12.6546 25.2288 12.4235 25.275 12.2039C25.3559 11.8458 25.5523 11.5916 25.8989 11.4529C26.0491 11.3951 26.1994 11.3374 26.3611 11.3374C27.0198 11.3143 27.6784 11.3027 28.337 11.4414C29.2961 11.6493 29.7352 12.1577 29.8045 13.1398C29.8161 13.3132 29.8161 13.4749 29.8161 13.6482C29.8161 15.4392 29.8161 17.2416 29.8045 19.0441C29.8161 19.0441 29.8045 19.0441 29.8045 19.0441Z" fill="white"/>
<path fill-rule="evenodd" clip-rule="evenodd" d="M5.83734 27.2753C5.83334 27.1849 5.82927 27.0929 5.87427 26.9939C5.91899 27.0063 5.96371 27.0198 6.00854 27.0333C6.17223 27.0827 6.33745 27.1325 6.50979 27.1325C8.04659 27.4676 9.58338 27.4098 11.0971 27.017C13.5698 26.3815 15.2222 24.8448 16.0079 22.4068C16.551 20.7199 16.6203 18.9751 16.3199 17.2304C15.7884 14.1916 14.0436 12.1927 11.0855 11.2684C9.84915 10.8871 8.56656 10.7947 7.27241 10.8178C6.1747 10.8409 5.10009 10.9449 4.0486 11.2337C3.14731 11.4764 2.29226 11.823 1.54119 12.3892C0.767015 12.9784 0.362594 13.7295 0.385704 14.7231C0.410464 15.4164 0.405747 16.1096 0.40103 16.8029C0.399143 17.0802 0.397256 17.3575 0.397256 17.6348V29.9749C0.397256 30.3793 0.420367 30.7837 0.535916 31.1765C0.686129 31.6734 0.974997 32.0547 1.44875 32.2742C1.63363 32.3551 1.84161 32.4244 2.0496 32.4706C2.84689 32.644 3.64418 32.6324 4.44146 32.5862C5.21564 32.54 5.63162 32.124 5.79339 31.373C5.8396 31.1881 5.8396 31.0033 5.8396 30.8069V30.8068V27.3521C5.8396 27.3265 5.83847 27.301 5.83734 27.2753ZM5.81905 18.0277C5.81777 18.3897 5.81648 18.7518 5.81648 19.1138V19.1145C5.81648 20.2004 5.81648 21.2747 5.82804 22.349C5.82804 22.6379 5.82804 22.6379 6.08225 22.7419C6.82176 23.0423 7.59594 23.1578 8.39323 23.0076C9.3985 22.8228 10.1265 22.2913 10.5309 21.3322C10.7042 20.9047 10.8082 20.4657 10.8544 20.0035C10.9469 19.0214 10.9353 18.0393 10.6233 17.0918C10.2767 16.0403 9.58338 15.3702 8.48566 15.1622C7.65371 15.012 6.85642 15.1276 6.08225 15.4511C5.88581 15.532 5.81648 15.6359 5.81648 15.8555C5.82419 16.5796 5.82162 17.3036 5.81905 18.0277Z" fill="white"/>
<path fill-rule="evenodd" clip-rule="evenodd" d="M44.6266 21.1341C44.6279 20.758 44.6292 20.3814 44.6292 20.0035C44.6292 18.916 44.6403 17.8285 44.6516 16.7193L44.6523 16.6528C44.6407 15.9133 44.5252 15.1854 44.2363 14.5036C43.7163 13.302 42.8035 12.5163 41.6249 12.0079C40.7121 11.6151 39.7414 11.4186 38.7477 11.3493C37.2687 11.2338 35.8012 11.2684 34.3569 11.5688C33.6982 11.7075 33.0627 11.9155 32.4965 12.2968C32.1961 12.5047 31.9419 12.7589 31.8148 13.1171C31.6299 13.6717 31.6184 14.2263 31.8148 14.781C32.069 15.5089 32.5659 15.7746 33.3169 15.6244C33.5358 15.5807 33.7546 15.5317 33.9747 15.4825C34.2194 15.4277 34.4656 15.3727 34.7151 15.324C35.7088 15.1276 36.7141 15.0351 37.7309 15.1622C38.1584 15.22 38.586 15.3009 38.9788 15.5204C39.4179 15.7631 39.6721 16.1328 39.7068 16.6412C39.7299 16.8838 39.7068 16.9185 39.4641 16.9416C39.0019 16.9917 38.5397 17.0405 38.0775 17.0893C37.1531 17.1868 36.2287 17.2844 35.3044 17.3922C34.5648 17.4847 33.86 17.6695 33.1783 17.9584C31.9188 18.5015 31.1215 19.4374 30.8673 20.8008C30.7517 21.4247 30.7402 22.0486 30.8326 22.6726C30.9828 23.7471 31.4566 24.6368 32.3116 25.307C33.1551 25.9771 34.1373 26.3469 35.1888 26.5317C37.0723 26.8668 38.9673 26.8322 40.8392 26.4624C41.8906 26.2544 42.8728 25.8616 43.7394 25.203C44.3403 24.7524 44.6407 24.1515 44.6292 23.389C44.6215 22.6345 44.624 21.8852 44.6266 21.1341ZM39.7183 22.4184V21.494V20.4888C39.7299 20.3271 39.6605 20.2924 39.5103 20.3039C38.7708 20.3617 38.0429 20.4195 37.3149 20.4888C36.9798 20.5119 36.6447 20.5812 36.3327 20.7315C35.7897 20.9857 35.5239 21.4363 35.7319 22.1411C35.8821 22.6495 36.3096 22.8575 36.7834 22.9614C37.3611 23.0885 37.9504 23.0539 38.5282 22.9961C38.8517 22.9614 39.1637 22.9037 39.4641 22.7881L39.4641 22.7881C39.7183 22.6841 39.7183 22.6841 39.7183 22.4184Z" fill="white"/>
<path d="M25.4985 0.497296V4.29953C24.9503 4.56491 24.4233 4.87264 23.9221 5.21996C21.9312 3.50989 20.1758 3.63032 20.1758 3.63032C22.2745 0.339807 25.4985 0.497296 25.4985 0.497296Z" fill="white"/>
<path d="M23.9221 5.22038C20.604 7.52562 20.1803 10.5348 20.1803 10.5348L20.1758 3.63074C20.1758 3.63074 21.9312 3.51031 23.9221 5.22038Z" fill="white"/>
<path d="M14.853 0.497296V4.29953C15.4012 4.56491 15.9282 4.87264 16.4294 5.21996C18.4203 3.50989 20.1758 3.63032 20.1758 3.63032C18.077 0.339807 14.853 0.497296 14.853 0.497296Z" fill="white"/>
<path d="M16.4292 5.22038C19.7473 7.52562 20.171 10.5348 20.171 10.5348L20.1756 3.63074C20.1756 3.63074 18.4201 3.51031 16.4292 5.22038Z" fill="white"/>
<path d="M9.86932 29.8697C10.1929 29.8466 10.5279 29.9852 10.8399 30.1932C11.0133 30.3088 11.0364 30.4012 10.9555 30.5976C10.9324 30.6438 10.9093 30.6901 10.8746 30.7363C10.6204 31.0829 10.5395 31.0598 10.2506 30.8865C9.89244 30.6669 9.47644 30.7363 9.22223 31.0482C9.00269 31.3024 8.97958 31.6837 9.16446 31.9726C9.36089 32.273 9.71912 32.4001 10.0542 32.2846C10.1351 32.2615 10.216 32.2152 10.2853 32.1806C10.4009 32.1228 10.5049 32.0304 10.632 32.1344C10.7937 32.273 10.967 32.4117 10.9901 32.6427C11.0017 32.7583 10.9093 32.8276 10.8168 32.8969C10.5048 33.128 10.1582 33.2436 9.77688 33.232C8.86403 33.1973 8.12451 32.4463 8.12451 31.5335C8.13607 30.5976 8.88715 29.8697 9.86932 29.8697Z" fill="white"/>
<path d="M17.5069 30.5552C17.7264 30.2086 18.0153 30.0237 18.3966 29.9428C18.905 29.8388 19.3326 30.0468 19.5521 30.509C19.6908 30.7978 19.7254 31.1214 19.7485 31.4449C19.7717 31.8955 19.7601 32.3346 19.7485 32.7852C19.7485 32.9238 19.7485 33.0972 19.5983 33.1434C19.4019 33.2127 19.1708 33.2243 18.9744 33.1203C18.8588 33.0625 18.8704 32.9238 18.8704 32.8083C18.8704 32.3923 18.8704 31.9764 18.8704 31.5604C18.8704 31.4218 18.8588 31.2831 18.801 31.156C18.6971 30.9018 18.5006 30.7863 18.2233 30.7978C17.9691 30.8094 17.8304 30.9365 17.7496 31.1907C17.7149 31.2947 17.7149 31.3987 17.7149 31.5027C17.7149 31.9417 17.7033 32.3808 17.7033 32.8083C17.7033 33.1318 17.6571 33.1665 17.3336 33.1665C17.2989 33.1665 17.2642 33.1665 17.2411 33.1665C16.9869 33.1549 16.9523 33.1203 16.9407 32.8661C16.9176 32.4617 16.906 32.0573 16.8945 31.6529C16.8945 31.5373 16.8945 31.4218 16.8829 31.3062C16.8483 30.9943 16.6981 30.8325 16.4439 30.7978C16.1434 30.7516 15.8777 30.8787 15.7506 31.1445C15.6812 31.2831 15.6581 31.4218 15.6697 31.5835C15.6697 31.9764 15.6697 32.3692 15.6697 32.7621C15.6697 33.1203 15.6119 33.1665 15.2653 33.178C14.8377 33.178 14.7915 33.1434 14.7915 32.7043C14.7915 31.9417 14.7915 31.1676 14.7915 30.405C14.7915 30.3934 14.7915 30.3819 14.7915 30.3703C14.8031 30.1855 14.7799 30.0006 15.011 29.9313C15.2421 29.8619 15.4386 29.9313 15.5888 30.1393C15.6003 30.1508 15.6119 30.1739 15.635 30.2086C15.9354 29.9775 16.2705 29.9313 16.6403 29.9428C17.0563 29.9659 17.2874 30.2201 17.5069 30.5552Z" fill="white"/>
<path d="M21.0196 30.1969C22.1173 29.4921 23.2381 30.3703 23.3421 31.3986C23.4115 32.0225 23.1573 32.5194 22.672 32.9007C22.2098 33.2704 21.6205 33.2819 21.1352 32.9469C21.0889 32.9122 21.0312 32.866 20.9849 32.8313C20.8925 32.9007 20.9387 32.9931 20.9387 33.074C20.9387 33.5477 20.9387 34.0099 20.9387 34.4836C20.9387 34.6223 20.9734 34.8071 20.7885 34.8649C20.5805 34.9227 20.3725 34.9342 20.1761 34.8187C20.1299 34.7956 20.1068 34.7378 20.1068 34.68C20.1068 34.6223 20.0952 34.5529 20.0952 34.4836C20.0952 33.1086 20.0952 31.7337 20.0952 30.3587C20.0952 30.2894 20.0952 30.2316 20.1068 30.1623C20.1183 30.0583 20.1761 30.0005 20.2801 29.9658C20.569 29.8734 20.8116 29.9427 21.0196 30.1969ZM20.9734 31.5835C20.9849 32.011 21.3316 32.346 21.7476 32.3345C22.152 32.3229 22.4986 31.9648 22.4986 31.5719C22.4986 31.1675 22.1289 30.8093 21.7129 30.8093C21.2969 30.8093 20.9618 31.1444 20.9734 31.5835Z" fill="white"/>
<path d="M13.5552 32.9238C12.4113 33.6401 11.2905 32.7504 11.198 31.699C11.1403 31.0057 11.4638 30.4858 12.03 30.116C12.4691 29.8387 12.9197 29.885 13.3588 30.1507C13.3935 30.1738 13.4281 30.1969 13.4628 30.2316C13.4975 30.2547 13.5206 30.2894 13.5783 30.2778C13.6361 30.2316 13.613 30.1623 13.6246 30.1045C13.6361 30.0236 13.6708 29.9543 13.7517 29.9312C13.9134 29.8965 14.0868 29.8503 14.2485 29.8734C14.4103 29.8965 14.4681 29.989 14.4681 30.2085C14.4681 30.7053 14.4681 31.2137 14.4681 31.7105C14.4681 32.0803 14.4681 32.45 14.4681 32.8313C14.4681 33.1086 14.3987 33.1664 14.133 33.178C13.9019 33.1895 13.6592 33.2242 13.5552 32.9238ZM12.8273 30.7978C12.4229 30.7978 12.0647 31.1328 12.0531 31.5257C12.0415 31.9185 12.4113 32.3114 12.8157 32.3229C13.2201 32.3345 13.5668 31.9879 13.5783 31.5719C13.5783 31.1444 13.2664 30.8093 12.8273 30.7978Z" fill="white"/>
</svg>
